<svg width="159" height="27" viewBox="0 0 159 27" fill="none" xmlns="http://www.w3.org/2000/svg">
<path d="M45.752 19.4275C44.4461 19.4275 43.3072 19.1702 42.3317 18.6573C41.3562 18.1444 40.6016 17.4395 40.066 16.5407C39.5305 15.6436 39.2627 14.6248 39.2627 13.4807C39.2627 12.3366 39.5235 11.3006 40.0434 10.4104C40.5633 9.5202 41.2832 8.82209 42.1996 8.3161C43.1159 7.8101 44.161 7.55624 45.3347 7.55624C46.5084 7.55624 47.4978 7.80324 48.3933 8.2938C49.287 8.78607 49.9913 9.48075 50.5059 10.3778C51.0189 11.2749 51.2762 12.3315 51.2762 13.5459C51.2762 13.6625 51.2728 13.7929 51.2658 13.937C51.2589 14.081 51.2467 14.2183 51.2328 14.3486H41.4432V12.5476H49.7809L48.7028 13.1119C48.7167 12.4464 48.5776 11.8615 48.2855 11.3538C47.9916 10.8478 47.5917 10.4499 47.0857 10.16C46.5797 9.87011 45.9972 9.72603 45.3364 9.72603C44.6757 9.72603 44.0723 9.87011 43.5663 10.16C43.0603 10.4499 42.6638 10.8512 42.3787 11.3641C42.0935 11.8769 41.9492 12.4824 41.9492 13.1754V13.6093C41.9492 14.304 42.1109 14.9181 42.4326 15.4532C42.7543 15.9884 43.2098 16.4018 43.7958 16.6899C44.3818 16.9798 45.0565 17.1239 45.8198 17.1239C46.4806 17.1239 47.0735 17.0227 47.6021 16.8203C48.1307 16.6179 48.5984 16.2988 49.0106 15.8649L50.4851 17.5355C49.9565 18.1427 49.294 18.6093 48.4941 18.9352C47.6943 19.2611 46.7814 19.424 45.7555 19.424L45.752 19.4275Z" fill="white"/>
<path d="M54.1766 19.2765V4.0863H57.037V19.2765H54.1766ZM56.7935 12.7654V10.3572H65.2182V12.7654H56.7935ZM64.9991 19.2765V4.0863H67.8594V19.2765H64.9991Z" fill="white"/>
<path d="M76.7031 19.4275C75.705 19.4275 74.8252 19.2422 74.0636 18.8734C73.3002 18.5047 72.7073 17.9403 72.2813 17.1805C71.8553 16.4206 71.6431 15.4635 71.6431 14.3057V7.68661H74.3922V13.937C74.3922 14.9781 74.6304 15.7568 75.1069 16.2697C75.5833 16.7826 76.2615 17.0398 77.1413 17.0398C77.7864 17.0398 78.348 16.9095 78.8245 16.6488C79.3009 16.388 79.6748 15.997 79.946 15.4773C80.2173 14.9558 80.3529 14.3126 80.3529 13.5459V7.68661H83.102V19.2748H80.4851V16.1496L80.9476 17.105C80.5511 17.858 79.9721 18.4326 79.2105 18.8306C78.4472 19.2285 77.6125 19.4275 76.7031 19.4275Z" fill="white"/>
<path d="M86.7118 19.2765V3.1738H89.4609V19.2748H86.7118V19.2765ZM88.9566 16.6934L89.0227 13.2869L95.1608 7.68832H98.461L93.248 12.8529L91.7961 14.0467L88.9584 16.6934H88.9566ZM95.5781 19.2765L91.2884 14.0467L93.0255 11.8769L98.9218 19.2765H95.5781Z" fill="white"/>
<path d="M105.411 19.4275C104.413 19.4275 103.533 19.2422 102.772 18.8734C102.008 18.5047 101.415 17.9403 100.989 17.1805C100.563 16.4206 100.351 15.4635 100.351 14.3057V7.68661H103.1V13.937C103.1 14.9781 103.338 15.7568 103.815 16.2697C104.291 16.7826 104.969 17.0398 105.849 17.0398C106.494 17.0398 107.056 16.9095 107.532 16.6488C108.009 16.388 108.383 15.997 108.654 15.4773C108.925 14.9558 109.061 14.3126 109.061 13.5459V7.68661H111.81V19.2748H109.193V16.1496L109.656 17.105C109.259 17.858 108.68 18.4326 107.919 18.8306C107.155 19.2285 106.321 19.4275 105.411 19.4275Z" fill="white"/>
<path d="M115.42 19.2765V7.68831H118.039V10.7706L117.576 9.8598C117.972 9.10853 118.548 8.53564 119.303 8.14628C120.057 7.7552 120.92 7.55966 121.888 7.55966C122.989 7.55966 123.945 7.82724 124.759 8.3624C125.573 8.89755 126.112 9.70715 126.376 10.7929L125.298 10.4241C125.679 9.55621 126.31 8.86153 127.19 8.3401C128.07 7.81866 129.089 7.55966 130.249 7.55966C131.188 7.55966 132.019 7.74148 132.745 8.10168C133.471 8.4636 134.039 9.01762 134.45 9.76204C134.86 10.5065 135.065 11.4653 135.065 12.6368V19.2765H132.316V12.9833C132.316 11.9558 132.088 11.1891 131.634 10.6831C131.179 10.1771 130.527 9.92327 129.676 9.92327C129.075 9.92327 128.543 10.0536 128.082 10.3143C127.619 10.5751 127.261 10.9576 127.004 11.4653C126.747 11.9713 126.62 12.6162 126.62 13.3966V19.2782H123.871V12.985C123.871 11.9575 123.643 11.1908 123.189 10.6848C122.733 10.1788 122.081 9.92498 121.231 9.92498C120.629 9.92498 120.097 10.0553 119.636 10.3161C119.174 10.5768 118.816 10.9593 118.558 11.467C118.301 11.973 118.174 12.6179 118.174 13.3984V19.2799H115.425L115.42 19.2765Z" fill="white"/>
<path d="M142.126 19.4274C141.247 19.4274 140.476 19.2782 139.817 18.9832C139.158 18.6882 138.647 18.2748 138.289 17.7465C137.929 17.2182 137.75 16.6213 137.75 15.9558C137.75 15.2903 137.908 14.7191 138.223 14.1977C138.538 13.6762 139.056 13.2646 139.774 12.961C140.492 12.6574 141.445 12.5047 142.634 12.5047H146.044V14.3057H142.832C141.893 14.3057 141.262 14.4549 140.941 14.75C140.617 15.0467 140.457 15.4121 140.457 15.846C140.457 16.3383 140.655 16.7294 141.052 17.0175C141.448 17.3074 141.998 17.4515 142.702 17.4515C143.406 17.4515 143.982 17.2988 144.517 16.9952C145.053 16.6916 145.437 16.2439 145.672 15.6505L146.134 17.2782C145.87 17.9592 145.397 18.4858 144.716 18.8631C144.034 19.2388 143.171 19.4274 142.13 19.4274H142.126ZM145.823 19.2765V16.9335L145.668 16.4343V12.3332C145.668 11.5373 145.427 10.9198 144.943 10.4773C144.46 10.0365 143.726 9.81521 142.744 9.81521C142.083 9.81521 141.434 9.91641 140.796 10.1188C140.158 10.3212 139.619 10.6042 139.179 10.9644L138.101 8.99018C138.732 8.51334 139.483 8.15486 140.356 7.91644C141.229 7.67802 142.135 7.55795 143.072 7.55795C144.773 7.55795 146.089 7.95932 147.021 8.76205C147.952 9.56479 148.418 10.8049 148.418 12.4841V19.2765H145.821H145.823Z" fill="white"/>
<path d="M150.375 9.85812V7.68833H158.207V9.85812H150.375ZM156.36 19.4275C155.07 19.4275 154.072 19.0981 153.368 18.4395C152.664 17.7808 152.312 16.8083 152.312 15.5201V5.12747H155.062V15.4567C155.062 16.0073 155.204 16.4326 155.491 16.7362C155.776 17.0398 156.176 17.1925 156.689 17.1925C157.305 17.1925 157.818 17.033 158.23 16.7157L159 18.647C158.677 18.9077 158.282 19.1033 157.812 19.2336C157.343 19.364 156.86 19.4292 156.36 19.4292V19.4275Z" fill="white"/>
<path d="M65.5085 24.6932V22.1718H67.8368V24.6932H67.2491V22.5149L67.3847 22.6487H65.9606L66.0963 22.5149V24.6932H65.5085Z" fill="white"/>
<path d="M70.1703 24.7361C69.9686 24.7361 69.7808 24.7035 69.6104 24.6383C69.44 24.5732 69.2905 24.4823 69.1653 24.3639C69.0401 24.2455 68.9427 24.1083 68.8732 23.9505C68.8036 23.7927 68.7688 23.6195 68.7688 23.4325C68.7688 23.2456 68.8036 23.0723 68.8732 22.9145C68.9427 22.7567 69.0401 22.6178 69.167 22.5011C69.294 22.3828 69.4418 22.2919 69.6122 22.2267C69.7826 22.1615 69.9669 22.1289 70.1668 22.1289C70.3668 22.1289 70.5546 22.1615 70.7233 22.2267C70.8919 22.2919 71.0397 22.3828 71.1649 22.5011C71.2901 22.6195 71.3875 22.7567 71.4588 22.9128C71.5301 23.0689 71.5649 23.2438 71.5649 23.4325C71.5649 23.6212 71.5301 23.7927 71.4588 23.9522C71.3875 24.1118 71.2901 24.2507 71.1649 24.3656C71.0397 24.4823 70.8919 24.5732 70.7233 24.6366C70.5546 24.7018 70.3703 24.7344 70.1703 24.7344V24.7361ZM70.1668 24.2387C70.2816 24.2387 70.3859 24.2198 70.4833 24.1804C70.579 24.1426 70.6642 24.086 70.7372 24.014C70.8102 23.942 70.8676 23.8562 70.9076 23.7584C70.9476 23.6606 70.9684 23.5509 70.9684 23.4308C70.9684 23.3107 70.9476 23.201 70.9076 23.1032C70.8676 23.0054 70.812 22.9197 70.7389 22.8476C70.6676 22.7756 70.5824 22.7207 70.485 22.6812C70.3877 22.6435 70.2816 22.6229 70.1668 22.6229C70.0521 22.6229 69.9478 22.6418 69.8504 22.6812C69.7547 22.719 69.6695 22.7756 69.5965 22.8476C69.5235 22.9197 69.4661 23.0054 69.4261 23.1032C69.3861 23.201 69.3653 23.3107 69.3653 23.4308C69.3653 23.5509 69.3861 23.6572 69.4261 23.7567C69.4661 23.8562 69.5217 23.942 69.5948 24.014C69.6661 24.086 69.7513 24.1409 69.8486 24.1804C69.946 24.2181 70.0521 24.2387 70.1668 24.2387Z" fill="white"/>
<path d="M72.4951 24.6932V22.1718H73.601C73.8288 22.1718 74.0271 22.2078 74.1922 22.2816C74.3574 22.3553 74.4861 22.46 74.5748 22.5972C74.6652 22.7344 74.7104 22.8974 74.7104 23.086C74.7104 23.2747 74.6652 23.4359 74.5748 23.5715C74.4844 23.7087 74.3574 23.8133 74.1922 23.8871C74.0271 23.9608 73.8288 23.9968 73.601 23.9968H72.8238L73.0863 23.7344V24.6915H72.4951V24.6932ZM73.0881 23.7996L72.8255 23.5217H73.5697C73.7523 23.5217 73.8879 23.484 73.9784 23.4068C74.0688 23.3296 74.114 23.2233 74.114 23.086C74.114 22.9488 74.0688 22.839 73.9784 22.7619C73.8879 22.6847 73.7523 22.6469 73.5697 22.6469H72.8255L73.0881 22.3691V23.7979V23.7996Z" fill="white"/>
<path d="M76.0232 24.6932V22.5149L76.1588 22.6487H75.2094V22.1736H77.4247V22.6487H76.4753L76.6075 22.5149V24.6932H76.0232Z" fill="white"/>
<path d="M77.8542 24.6932L78.9931 22.1718H79.5774L80.7198 24.6932H80.099L79.1653 22.4686H79.3983L78.4593 24.6932H77.8542ZM78.4245 24.1529L78.581 23.7104H79.8956L80.0555 24.1529H78.4245Z" fill="white"/>
<path d="M81.5736 24.7327C81.5301 24.7327 81.4849 24.7292 81.4362 24.7224C81.3875 24.7155 81.3371 24.7052 81.2814 24.6932L81.3179 24.1992C81.3527 24.2095 81.3875 24.213 81.424 24.213C81.5231 24.213 81.6014 24.1735 81.657 24.0929C81.7127 24.0123 81.7527 23.8973 81.777 23.7447C81.8013 23.5938 81.817 23.4102 81.8239 23.1941L81.8605 22.1718H83.8236V24.6932H83.2393V22.5149L83.375 22.6487H82.2465L82.3665 22.508L82.3439 23.1735C82.3369 23.4205 82.3195 23.6401 82.2934 23.8322C82.2673 24.0243 82.2256 24.1872 82.17 24.3227C82.1143 24.4582 82.0378 24.5594 81.9404 24.628C81.8431 24.6984 81.7196 24.7327 81.5718 24.7327H81.5736Z" fill="white"/>
<path d="M84.9399 24.6932V22.1718H85.5277V23.8133L86.7466 22.1718H87.3013V24.6932H86.717V23.0552L85.4981 24.6932H84.9399Z" fill="white"/>
<path d="M91.3753 24.6932V23.8974L91.5214 24.0226H90.8206C90.5998 24.0226 90.4085 23.9865 90.2468 23.9145C90.0851 23.8425 89.9634 23.7378 89.8782 23.6006C89.793 23.4634 89.7513 23.3004 89.7513 23.1118C89.7513 22.9231 89.7965 22.7464 89.8886 22.6058C89.9808 22.4651 90.1077 22.3588 90.2729 22.2833C90.4381 22.2096 90.6328 22.1718 90.8572 22.1718H91.9596V24.6932H91.3753ZM89.7582 24.6932L90.3929 23.7893H90.991L90.3807 24.6932H89.7565H89.7582ZM91.3753 23.7087V22.496L91.5214 22.6469H90.8711C90.7024 22.6469 90.5755 22.6847 90.4868 22.7619C90.3981 22.839 90.3529 22.9523 90.3529 23.1032C90.3529 23.2541 90.3946 23.3622 90.4798 23.4411C90.565 23.52 90.6902 23.5594 90.8554 23.5594H91.5196L91.3736 23.707L91.3753 23.7087Z" fill="white"/>
<path d="M93.0724 24.6932V22.1718H94.8755L94.8721 22.6469H93.521L93.6566 22.5131L93.6601 24.6915H93.0724V24.6932Z" fill="white"/>
<path d="M96.6753 24.7361C96.4736 24.7361 96.2858 24.7035 96.1154 24.6383C95.945 24.5732 95.7954 24.4823 95.6702 24.3639C95.545 24.2455 95.4477 24.1083 95.3781 23.9505C95.3086 23.7927 95.2738 23.6195 95.2738 23.4325C95.2738 23.2456 95.3086 23.0723 95.3781 22.9145C95.4477 22.7567 95.545 22.6178 95.672 22.5011C95.7989 22.3828 95.9467 22.2919 96.1171 22.2267C96.2875 22.1615 96.4718 22.1289 96.6718 22.1289C96.8718 22.1289 97.0595 22.1615 97.2282 22.2267C97.3969 22.2919 97.5447 22.3828 97.6699 22.5011C97.7951 22.6195 97.8925 22.7567 97.9637 22.9128C98.035 23.0689 98.0698 23.2438 98.0698 23.4325C98.0698 23.6212 98.035 23.7927 97.9637 23.9522C97.8925 24.1118 97.7951 24.2507 97.6699 24.3656C97.5447 24.4823 97.3969 24.5732 97.2282 24.6366C97.0595 24.7018 96.8752 24.7344 96.6753 24.7344V24.7361ZM96.6718 24.2387C96.7866 24.2387 96.8909 24.2198 96.9883 24.1804C97.0839 24.1426 97.1691 24.086 97.2421 24.014C97.3152 23.942 97.3725 23.8562 97.4125 23.7584C97.4525 23.6606 97.4734 23.5509 97.4734 23.4308C97.4734 23.3107 97.4525 23.201 97.4125 23.1032C97.3725 23.0054 97.3169 22.9197 97.2439 22.8476C97.1726 22.7756 97.0874 22.7207 96.99 22.6812C96.8926 22.6435 96.7866 22.6229 96.6718 22.6229C96.557 22.6229 96.4527 22.6418 96.3553 22.6812C96.2597 22.719 96.1745 22.7756 96.1015 22.8476C96.0284 22.9197 95.971 23.0054 95.9311 23.1032C95.8911 23.201 95.8702 23.3107 95.8702 23.4308C95.8702 23.5509 95.8911 23.6572 95.9311 23.7567C95.971 23.8562 96.0267 23.942 96.0997 24.014C96.171 24.086 96.2562 24.1409 96.3536 24.1804C96.451 24.2181 96.557 24.2387 96.6718 24.2387Z" fill="white"/>
<path d="M99.0018 24.6932V22.1718H99.593V24.6932H99.0018ZM99.5478 23.6589V23.1649H100.796V23.6589H99.5478ZM100.753 24.6932V22.1718H101.344V24.6932H100.753Z" fill="white"/>
<path d="M102.17 24.6932L103.309 22.1718H103.893L105.036 24.6932H104.415L103.481 22.4686H103.714L102.775 24.6932H102.17ZM102.739 24.1529L102.895 23.7104H104.21L104.37 24.1529H102.739Z" fill="white"/>
<path d="M105.849 24.6932V22.1718H106.437V23.8133L107.656 22.1718H108.211V24.6932H107.626V23.0552L106.407 24.6932H105.849Z" fill="white"/>
<path d="M110.565 25.2147L110.568 24.2181H113.464V25.2147H112.916V24.6932H111.113V25.2147H110.565ZM111.281 24.297L110.65 24.2181C110.737 24.2198 110.81 24.1907 110.868 24.1289C110.925 24.0672 110.97 23.978 111.005 23.8648C111.04 23.7516 111.064 23.6178 111.08 23.4634C111.095 23.309 111.108 23.1427 111.114 22.9626L111.144 22.1736H113.107V24.4342H112.523V22.6487H111.647L111.636 23.0157C111.629 23.1718 111.619 23.3193 111.605 23.4583C111.591 23.5972 111.572 23.7241 111.544 23.8373C111.518 23.9523 111.483 24.0483 111.44 24.1272C111.396 24.2061 111.344 24.2627 111.281 24.297Z" fill="white"/>
<path d="M114.062 24.6932L115.201 22.1718H115.785L116.927 24.6932H116.307L115.373 22.4686H115.606L114.667 24.6932H114.062ZM114.632 24.1529L114.789 23.7104H116.103L116.263 24.1529H114.632Z" fill="white"/>
<path d="M117.741 24.6932V22.1718H118.93C119.228 22.1718 119.459 22.2284 119.624 22.3416C119.789 22.4548 119.873 22.6161 119.873 22.8236C119.873 23.0312 119.795 23.1907 119.64 23.3039C119.483 23.4188 119.276 23.4754 119.019 23.4754L119.089 23.3245C119.376 23.3245 119.598 23.3811 119.756 23.4943C119.915 23.6075 119.993 23.7704 119.993 23.9831C119.993 24.1958 119.908 24.3776 119.739 24.5028C119.57 24.628 119.323 24.6915 119 24.6915H117.741V24.6932ZM118.329 23.2164H118.88C119.009 23.2164 119.106 23.1907 119.172 23.1392C119.238 23.0878 119.271 23.0106 119.271 22.9111C119.271 22.8116 119.238 22.7344 119.172 22.683C119.106 22.6315 119.009 22.6058 118.88 22.6058H118.329V23.2181V23.2164ZM118.329 24.261H118.979C119.115 24.261 119.219 24.2353 119.289 24.1821C119.36 24.1289 119.395 24.0483 119.395 23.9368C119.395 23.8253 119.36 23.7533 119.289 23.7001C119.217 23.6486 119.115 23.6229 118.979 23.6229H118.329V24.261Z" fill="white"/>
<path d="M120.961 24.7327C120.918 24.7327 120.873 24.7292 120.824 24.7224C120.775 24.7155 120.725 24.7052 120.669 24.6932L120.706 24.1992C120.741 24.2095 120.775 24.213 120.812 24.213C120.911 24.213 120.989 24.1735 121.045 24.0929C121.101 24.0123 121.141 23.8973 121.165 23.7447C121.189 23.5938 121.205 23.4102 121.212 23.1941L121.248 22.1718H123.211V24.6932H122.627V22.5149L122.763 22.6487H121.634L121.754 22.508L121.732 23.1735C121.725 23.4205 121.707 23.6401 121.681 23.8322C121.655 24.0243 121.614 24.1872 121.558 24.3227C121.502 24.4582 121.426 24.5594 121.328 24.628C121.231 24.6984 121.108 24.7327 120.96 24.7327H120.961Z" fill="white"/>
<path d="M124.039 24.6932L125.178 22.1718H125.762L126.905 24.6932H126.284L125.35 22.4686H125.583L124.644 24.6932H124.039ZM124.608 24.1529L124.764 23.7104H126.079L126.239 24.1529H124.608Z" fill="white"/>
<path d="M128.141 24.6932V22.5149L128.277 22.6487H127.327V22.1736H129.543V22.6487H128.593L128.725 22.5149V24.6932H128.141Z" fill="white"/>
<path d="M130.389 24.6932V22.1718H130.977V23.8133L132.196 22.1718H132.751V24.6932H132.166V23.0552L130.948 24.6932H130.389ZM130.894 21.8665V21.5492H132.245V21.8665H130.894Z" fill="white"/>
<path d="M0.613806 2.83245L0 3.09145V26.6538L1.41019 26.0534C1.47626 26.026 6.28412 24.002 11.3632 23.472V21.4669C7.54998 21.8305 3.93496 22.9797 2.01878 23.6778V4.41391C7.73952 2.16522 13.7576 1.97654 16.0337 1.99884V0.00229847C13.4933 -0.0268607 6.89792 0.184115 0.613806 2.83245Z" fill="white"/>
<path d="M23.8028 19.4086L18.5359 14.8357C18.0821 14.4429 18.3377 13.7054 18.941 13.6676L20.1147 13.5939C20.2938 13.5836 20.4712 13.6419 20.6051 13.7603L23.648 16.4052L29.2575 10.1274C29.5479 9.80149 29.7096 9.38125 29.7096 8.94729V1.74841C29.7096 1.74841 20.4695 5.69347 13.6759 4.20293V25.8562C13.6759 25.8562 22.0101 26.3827 29.7096 23.1392V13.5956C29.7096 13.3177 29.3618 13.1891 29.1758 13.3966L23.8028 19.4086Z" fill="white"/>
</svg>
