<svg width="40" height="34" viewBox="0 0 40 34" fill="none" xmlns="http://www.w3.org/2000/svg">
<path fill-rule="evenodd" clip-rule="evenodd" d="M17.0372 9.07697C14.9916 7.04842 11.675 7.04842 9.62944 9.07697C7.58384 11.1055 7.58384 14.3945 9.62944 16.423C11.675 18.4516 14.9916 18.4516 17.0372 16.423C19.0828 14.3945 19.0828 11.1055 17.0372 9.07697ZM15.6904 10.4126C14.3886 9.12172 12.2781 9.12172 10.9763 10.4126C9.67456 11.7035 9.67456 13.7965 10.9763 15.0874C12.2781 16.3783 14.3886 16.3783 15.6904 15.0874C16.9921 13.7965 16.9921 11.7035 15.6904 10.4126Z" fill="#5EB681"/>
<path d="M25.7143 11.3333C25.1883 11.3333 24.7619 11.7562 24.7619 12.2778C24.7619 12.7994 25.1883 13.2222 25.7143 13.2222H33.3333C33.8593 13.2222 34.2857 12.7994 34.2857 12.2778C34.2857 11.7562 33.8593 11.3333 33.3333 11.3333H25.7143Z" fill="#5EB681"/>
<path d="M24.7619 19.8333C24.7619 19.3117 25.1883 18.8889 25.7143 18.8889H30.2857C30.8117 18.8889 31.2381 19.3117 31.2381 19.8333C31.2381 20.3549 30.8117 20.7778 30.2857 20.7778H25.7143C25.1883 20.7778 24.7619 20.3549 24.7619 19.8333Z" fill="#5EB681"/>
<path d="M12.1029 20.7778C10.339 20.7778 8.64132 21.4381 7.34726 22.6272C6.58184 23.3295 5.98662 24.1911 5.60106 25.1503C5.40629 25.6348 5.64449 26.1842 6.13308 26.3773C6.62168 26.5705 7.17565 26.3342 7.37042 25.8497C7.65148 25.1505 8.08471 24.5239 8.64105 24.0135L7.99436 23.3203L8.64168 24.0129C9.58377 23.1471 10.8192 22.6667 12.1029 22.6667H14.5638C15.8475 22.6667 17.083 23.1471 18.025 24.0129L18.6726 23.32L18.0257 24.0135C18.582 24.5239 19.0152 25.1505 19.2963 25.8497C19.4911 26.3342 20.045 26.5705 20.5336 26.3773C21.0222 26.1842 21.2604 25.6348 21.0657 25.1503C20.6801 24.191 20.0847 23.3292 19.3191 22.6269C18.0251 21.438 16.3275 20.7778 14.5638 20.7778H12.1029Z" fill="#5EB681"/>
<path fill-rule="evenodd" clip-rule="evenodd" d="M0 4.79967C0 2.14929 2.16735 0 4.84 0H35.2381C37.8688 0 40 2.1134 40 4.72222V29.2778C40 31.8866 37.8688 34 35.2381 34H4.7619C2.13116 34 0 31.8866 0 29.2778V4.79967ZM4.84 1.88889C3.21932 1.88889 1.90476 3.19249 1.90476 4.79967V29.2778C1.90476 30.8434 3.18313 32.1111 4.7619 32.1111H35.2381C36.8169 32.1111 38.0952 30.8434 38.0952 29.2778V4.72222C38.0952 3.1566 36.8169 1.88889 35.2381 1.88889H4.84Z" fill="#5EB681"/>
</svg>
