<svg width="12" height="20" viewBox="0 0 12 20" fill="none" xmlns="http://www.w3.org/2000/svg">
<path d="M7.3591 10.042L0.558638 16.7619C0.200941 17.1176 1.13809e-06 17.5987 1.11616e-06 18.1002C1.09424e-06 18.6017 0.200941 19.0828 0.558638 19.4385C0.737294 19.6164 0.949761 19.7576 1.18394 19.854C1.41792 19.9505 1.669 20 1.92257 20C2.17615 20 2.42742 19.9505 2.6614 19.854C2.89558 19.7576 3.10804 19.6164 3.28651 19.4385L11.4318 11.3898C11.6118 11.2132 11.7547 11.0033 11.8523 10.7721C11.9498 10.5407 12 10.2926 12 10.042C12 9.7914 11.9498 9.5433 11.8523 9.3119C11.7547 9.08069 11.6118 8.87074 11.4318 8.6942L3.28651 0.550534C3.10709 0.374601 2.89423 0.2354 2.66006 0.140941C2.42608 0.0464637 2.17538 -0.00141147 1.92257 3.12205e-05C1.66977 -0.00141149 1.41926 0.0464636 1.18509 0.140941C0.951107 0.2354 0.738255 0.374601 0.558639 0.550534C0.200942 0.906196 1.84671e-06 1.38732 1.82479e-06 1.88882C1.80286e-06 2.39033 0.200942 2.87145 0.558638 3.22712L7.3591 10.042Z" fill="white"/>
</svg>
