<svg width="18" height="18" viewBox="0 0 18 18" fill="none" xmlns="http://www.w3.org/2000/svg">
<path d="M17.7823 16.7274L13.3731 12.3204C14.4777 10.9724 15.0834 9.28545 15.0834 7.54328C15.0834 3.38306 11.6996 0 7.54261 0C6.52637 0 5.53959 0.198895 4.60988 0.593002C3.71147 0.974217 2.90511 1.5175 2.21289 2.20994C1.52067 2.90239 0.975734 3.70902 0.594646 4.60773C0.20067 5.53775 0 6.52486 0 7.54144C0 11.7017 3.38377 15.0847 7.54077 15.0847C9.2842 15.0847 10.9687 14.4788 12.3163 13.3738L16.7219 17.7808C16.8636 17.9227 17.0514 18 17.2502 18C17.4509 18 17.6387 17.9227 17.7786 17.7808C18.0732 17.4917 18.0732 17.0184 17.7823 16.7274ZM13.5903 7.54144C13.5903 10.8785 10.8767 13.5912 7.54261 13.5912C4.2067 13.5912 1.4949 10.8766 1.4949 7.54144C1.4949 4.20626 4.20854 1.49171 7.54261 1.49171C10.8767 1.49171 13.5903 4.20626 13.5903 7.54144Z" fill="#939393"/>
</svg>
