<svg width="12" height="20" viewBox="0 0 12 20" fill="none" xmlns="http://www.w3.org/2000/svg">
<path d="M4.6409 9.95802L11.4414 3.23809C11.7991 2.88236 12 2.40133 12 1.8998C12 1.39828 11.7991 0.917249 11.4414 0.561512C11.2627 0.383642 11.0502 0.242412 10.8161 0.145978C10.5821 0.0495448 10.331 -5.52601e-07 10.0774 -5.85854e-07C9.82385 -6.19106e-07 9.57258 0.0495446 9.3386 0.145978C9.10442 0.242412 8.89196 0.383641 8.71349 0.561511L0.568242 8.61024C0.388184 8.78678 0.245259 8.99673 0.147728 9.22794C0.0502163 9.45934 1.34971e-06 9.70745 1.31685e-06 9.95802C1.28399e-06 10.2086 0.0502162 10.4567 0.147728 10.6881C0.245259 10.9193 0.388183 11.1293 0.568242 11.3058L8.71349 19.4495C8.89291 19.6254 9.10577 19.7646 9.33994 19.8591C9.57392 19.9535 9.82462 20.0014 10.0774 20C10.3302 20.0014 10.5807 19.9535 10.8149 19.8591C11.0489 19.7646 11.2617 19.6254 11.4414 19.4495C11.7991 19.0938 12 18.6127 12 18.1112C12 17.6097 11.7991 17.1285 11.4414 16.7729L4.6409 9.95802Z" fill="white"/>
</svg>
